<svg xmlns="http://www.w3.org/2000/svg" viewBox="0 0 1800 1500" role="img" aria-labelledby="title desc"><title id="title">Atlas de Valédria</title><desc id="desc">Mapa narrativo com 43 localidades, três reinos humanos, terras élficas, anãs e demoníacas. Norte para cima. Sem escala métrica.</desc><defs><pattern id="sea" width="48" height="32" patternUnits="userSpaceOnUse"><path d="M0 20q12-7 24 0t24 0" fill="none" stroke="#a4b6ad" stroke-width=".8" opacity=".4"/></pattern><pattern id="paper" width="10" height="10" patternUnits="userSpaceOnUse"><circle cx="2" cy="3" r=".5" fill="#8a7144" opacity=".12"/></pattern><symbol id="peak" viewBox="0 0 60 50"><path d="M2 47 28 3 58 47Z" fill="#b5ae97" stroke="#7d7b65"/><path d="m28 3-9 25 10-8 9 10Z" fill="#f5edda"/><path d="m28 21 10 26" stroke="#7d7b65" fill="none"/></symbol><symbol id="tree" viewBox="0 0 32 42"><path d="M16 1 3 22h7L0 34h14v7h4v-7h14L22 22h7Z" fill="#789077" stroke="#57715d" stroke-width=".7"/></symbol><clipPath id="landclip"><path d="M85 135Q240 55 500 85T1100 70Q1440 35 1680 165L1720 430 1690 800 1720 1140Q1710 1430 1390 1380L1190 1425 1060 1380 960 1400 850 1370 810 1405 690 1480 520 1460 480 1410 440 1430 315 1435 180 1340 140 1170 70 990 105 790 70 590Z"/></clipPath></defs><rect width="1800" height="1500" fill="#d9e1d5"/><rect width="1800" height="1500" fill="url(#sea)"/><path d="M85 135Q240 55 500 85T1100 70Q1440 35 1680 165L1720 430 1690 800 1720 1140Q1710 1430 1390 1380L1190 1425 1060 1380 960 1400 850 1370 810 1405 690 1480 520 1460 480 1410 440 1430 315 1435 180 1340 140 1170 70 990 105 790 70 590Z" fill="#efe4c8" stroke="#958465" stroke-width="3"/>
<g clip-path="url(#landclip)"><path d="M120 125 510 90 560 460 400 510 105 470Z" fill="#bdc4af" opacity=".6"/><path d="M115 500 440 480 565 640 490 855 320 1050 100 955Z" fill="#aabb8f" opacity=".55"/><path d="M555 100 1240 100 1250 525 1120 570 920 600 560 520Z" fill="#cdd2b8" opacity=".6"/><path d="M530 570 1150 550 1300 720 1230 1040 1030 1100 540 1000Z" fill="#dfc59b" opacity=".52"/><path d="M300 1030 570 980 1030 1090 1180 1390 1000 1460 510 1450 200 1300Z" fill="#d7d09b" opacity=".5"/><path d="M1300 390 1670 410 1690 1320 1490 1370 1260 1170 1370 1020 1290 730Z" fill="#d9ac87" opacity=".53"/>
<g fill="none" stroke="#9b8760" stroke-width="2" stroke-dasharray="5 9" opacity=".55"><path d="M555 100 560 520 920 600 1120 570 1250 525"/><path d="M560 520 440 480 400 510 490 855 320 1050"/><path d="M320 1050 540 1000 1030 1100 1230 1040"/><path d="M1300 390 1290 730 1370 1020 1260 1170"/></g>
<g fill="none" stroke="#729d9c" stroke-linecap="round"><path d="M980 430Q930 640 740 830T450 1090Q520 1190 670 1200T850 1370L875 1450" stroke-width="8"/><path d="M250 930Q280 1050 300 1130T450 1210Q540 1240 670 1200" stroke-width="4"/><path d="M260 640Q390 660 450 810T640 990" stroke-width="5"/></g><use href="#peak" x="100" y="88" width="55" height="46"/><use href="#peak" x="166" y="108" width="55" height="46"/><use href="#peak" x="232" y="128" width="55" height="46"/><use href="#peak" x="298" y="88" width="55" height="46"/><use href="#peak" x="364" y="108" width="55" height="46"/><use href="#peak" x="430" y="128" width="55" height="46"/><use href="#peak" x="496" y="88" width="55" height="46"/><use href="#peak" x="562" y="108" width="55" height="46"/><use href="#peak" x="628" y="128" width="55" height="46"/><use href="#peak" x="694" y="88" width="55" height="46"/><use href="#peak" x="760" y="108" width="55" height="46"/><use href="#peak" x="826" y="128" width="55" height="46"/><use href="#peak" x="892" y="88" width="55" height="46"/><use href="#peak" x="958" y="108" width="55" height="46"/><use href="#peak" x="1024" y="128" width="55" height="46"/><use href="#peak" x="1090" y="88" width="55" height="46"/><use href="#peak" x="1156" y="108" width="55" height="46"/><use href="#peak" x="1222" y="128" width="55" height="46"/><use href="#peak" x="1288" y="88" width="55" height="46"/><use href="#peak" x="105" y="225" width="48" height="40" opacity=".5"/><use href="#peak" x="171" y="225" width="48" height="40" opacity=".5"/><use href="#peak" x="237" y="225" width="48" height="40" opacity=".5"/><use href="#peak" x="105" y="257" width="48" height="40" opacity=".5"/><use href="#peak" x="171" y="257" width="48" height="40" opacity=".5"/><use href="#peak" x="237" y="257" width="48" height="40" opacity=".5"/><use href="#peak" x="105" y="289" width="48" height="40" opacity=".5"/><use href="#peak" x="171" y="289" width="48" height="40" opacity=".5"/><use href="#peak" x="237" y="289" width="48" height="40" opacity=".5"/><use href="#peak" x="105" y="321" width="48" height="40" opacity=".5"/><use href="#peak" x="171" y="321" width="48" height="40" opacity=".5"/><use href="#peak" x="237" y="321" width="48" height="40" opacity=".5"/><use href="#tree" x="115" y="770" width="26" height="34" opacity=".5"/><use href="#tree" x="159" y="770" width="26" height="34" opacity=".5"/><use href="#tree" x="203" y="770" width="26" height="34" opacity=".5"/><use href="#tree" x="247" y="770" width="26" height="34" opacity=".5"/><use href="#tree" x="291" y="770" width="26" height="34" opacity=".5"/><use href="#tree" x="335" y="770" width="26" height="34" opacity=".5"/><use href="#tree" x="115" y="795" width="26" height="34" opacity=".5"/><use href="#tree" x="159" y="795" width="26" height="34" opacity=".5"/><use href="#tree" x="203" y="795" width="26" height="34" opacity=".5"/><use href="#tree" x="247" y="795" width="26" height="34" opacity=".5"/><use href="#tree" x="291" y="795" width="26" height="34" opacity=".5"/><use href="#tree" x="335" y="795" width="26" height="34" opacity=".5"/><use href="#tree" x="115" y="820" width="26" height="34" opacity=".5"/><use href="#tree" x="159" y="820" width="26" height="34" opacity=".5"/><use href="#tree" x="203" y="820" width="26" height="34" opacity=".5"/><use href="#tree" x="247" y="820" width="26" height="34" opacity=".5"/><use href="#tree" x="291" y="820" width="26" height="34" opacity=".5"/><use href="#tree" x="335" y="820" width="26" height="34" opacity=".5"/><use href="#tree" x="115" y="845" width="26" height="34" opacity=".5"/><use href="#tree" x="159" y="845" width="26" height="34" opacity=".5"/><use href="#tree" x="203" y="845" width="26" height="34" opacity=".5"/><use href="#tree" x="247" y="845" width="26" height="34" opacity=".5"/><use href="#tree" x="291" y="845" width="26" height="34" opacity=".5"/><use href="#tree" x="335" y="845" width="26" height="34" opacity=".5"/><use href="#tree" x="115" y="870" width="26" height="34" opacity=".5"/><use href="#tree" x="159" y="870" width="26" height="34" opacity=".5"/><use href="#tree" x="203" y="870" width="26" height="34" opacity=".5"/><use href="#tree" x="247" y="870" width="26" height="34" opacity=".5"/><use href="#tree" x="291" y="870" width="26" height="34" opacity=".5"/><use href="#tree" x="335" y="870" width="26" height="34" opacity=".5"/><use href="#tree" x="115" y="895" width="26" height="34" opacity=".5"/><use href="#tree" x="159" y="895" width="26" height="34" opacity=".5"/><use href="#tree" x="203" y="895" width="26" height="34" opacity=".5"/><use href="#tree" x="247" y="895" width="26" height="34" opacity=".5"/><use href="#tree" x="291" y="895" width="26" height="34" opacity=".5"/><use href="#tree" x="335" y="895" width="26" height="34" opacity=".5"/><path d="M1390 440q22-23 45 0" fill="none" stroke="#b78d64" opacity=".6"/><path d="M1455 440q22-23 45 0" fill="none" stroke="#b78d64" opacity=".6"/><path d="M1520 440q22-23 45 0" fill="none" stroke="#b78d64" opacity=".6"/><path d="M1585 440q22-23 45 0" fill="none" stroke="#b78d64" opacity=".6"/><path d="M1390 472q22-23 45 0" fill="none" stroke="#b78d64" opacity=".6"/><path d="M1455 472q22-23 45 0" fill="none" stroke="#b78d64" opacity=".6"/><path d="M1520 472q22-23 45 0" fill="none" stroke="#b78d64" opacity=".6"/><path d="M1585 472q22-23 45 0" fill="none" stroke="#b78d64" opacity=".6"/><path d="M1390 504q22-23 45 0" fill="none" stroke="#b78d64" opacity=".6"/><path d="M1455 504q22-23 45 0" fill="none" stroke="#b78d64" opacity=".6"/><path d="M1520 504q22-23 45 0" fill="none" stroke="#b78d64" opacity=".6"/><path d="M1585 504q22-23 45 0" fill="none" stroke="#b78d64" opacity=".6"/><path d="M1390 536q22-23 45 0" fill="none" stroke="#b78d64" opacity=".6"/><path d="M1455 536q22-23 45 0" fill="none" stroke="#b78d64" opacity=".6"/><path d="M1520 536q22-23 45 0" fill="none" stroke="#b78d64" opacity=".6"/><path d="M1585 536q22-23 45 0" fill="none" stroke="#b78d64" opacity=".6"/></g><g fill="#6a5b3e" font-family="Georgia,serif" text-anchor="middle"><text x="890" y="65" font-size="34" letter-spacing="10">VALÉDRIA</text><text x="290" y="470" font-size="23" letter-spacing="3">O VENTRE DE PEDRA</text><text x="300" y="525" font-size="23" letter-spacing="3">O VÉU VERDE</text><text x="920" y="245" font-size="27" letter-spacing="5">OSTENFELD</text><text x="830" y="590" font-size="27" letter-spacing="5">CÁRDENAS</text><text x="720" y="1050" font-size="27" letter-spacing="5">VALMEIRA</text><text x="1500" y="580" font-size="22" letter-spacing="2">AREIAS DA MALDIÇÃO</text><text x="1250" y="750" font-size="17">TERRAS DE ENCONTRO</text><text x="1490" y="1435" font-size="21" font-style="italic">Mar do Sul</text></g><g fill="none" stroke-linecap="round"><polyline points="450,1090 670,1200 850,1370" stroke="#a17640" stroke-width="3" stroke-dasharray="9 7" opacity=".75"><title>Rota Fluvial do Sul</title></polyline><polyline points="650,920 820,920 850,780" stroke="#a17640" stroke-width="3" stroke-dasharray="9 7" opacity=".75"><title>Rota Terrestre Central</title></polyline><polyline points="850,780 880,300 680,210" stroke="#a17640" stroke-width="3" stroke-dasharray="9 7" opacity=".75"><title>Rota Norte</title></polyline><polyline points="480,1410 1060,1380 850,1370" stroke="#a17640" stroke-width="3" stroke-dasharray="9 7" opacity=".75"><title>Circuito da Costa</title></polyline><polyline points="450,1090 480,1200 640,1300 670,1200" stroke="#a17640" stroke-width="3" stroke-dasharray="9 7" opacity=".75"><title>Estrada dos Celeiros</title></polyline><polyline points="840,690 850,780 1010,820" stroke="#a17640" stroke-width="3" stroke-dasharray="9 7" opacity=".75"><title>Cinturão da Capital</title></polyline><polyline points="930,520 880,380 880,300 680,210" stroke="#a17640" stroke-width="3" stroke-dasharray="9 7" opacity=".75"><title>Caminho dos Vales</title></polyline><polyline points="280,990 450,810" stroke="#a17640" stroke-width="3" stroke-dasharray="9 7" opacity=".75"><title>Rio Prateado</title></polyline><polyline points="680,210 470,160 260,200 330,350 140,420" stroke="#757482" stroke-width="3" stroke-dasharray="3 8" opacity=".75"><title>Passagem das Fauces</title></polyline><polyline points="650,920 1240,820 1350,970.0000000000001 1450,1090 1530,910" stroke="#a17640" stroke-width="3" stroke-dasharray="9 7" opacity=".75"><title>Estrada da Fronteira</title></polyline></g><g font-family="Georgia,serif" font-size="17" fill="#302f25"><g id="local-1"><circle cx="450" cy="1090" r="13" fill="#fff8e5" stroke="#6e5932" stroke-width="2"/><text x="450" y="1094" text-anchor="middle" font-size="11" font-family="sans-serif">1</text><text x="450" y="1123" text-anchor="middle" paint-order="stroke" stroke="#efe4c8" stroke-width="5" stroke-linejoin="round">Amieiro</text></g><g id="local-2"><circle cx="670" cy="1200" r="13" fill="#fff8e5" stroke="#6e5932" stroke-width="2"/><text x="670" y="1204" text-anchor="middle" font-size="11" font-family="sans-serif">2</text><text x="670" y="1233" text-anchor="middle" paint-order="stroke" stroke="#efe4c8" stroke-width="5" stroke-linejoin="round">Ponte Alta</text></g><g id="local-3"><circle cx="850" cy="1370" r="13" fill="#fff8e5" stroke="#6e5932" stroke-width="2"/><text x="850" y="1374" text-anchor="middle" font-size="11" font-family="sans-serif">3</text><text x="850" y="1403" text-anchor="middle" paint-order="stroke" stroke="#efe4c8" stroke-width="5" stroke-linejoin="round">Portovale</text></g><g id="local-4"><circle cx="480" cy="1200" r="13" fill="#fff8e5" stroke="#6e5932" stroke-width="2"/><text x="480" y="1204" text-anchor="middle" font-size="11" font-family="sans-serif">4</text><text x="480" y="1233" text-anchor="middle" paint-order="stroke" stroke="#efe4c8" stroke-width="5" stroke-linejoin="round">Vaudessa</text></g><g id="local-5"><circle cx="640" cy="1300" r="13" fill="#fff8e5" stroke="#6e5932" stroke-width="2"/><text x="640" y="1304" text-anchor="middle" font-size="11" font-family="sans-serif">5</text><text x="640" y="1333" text-anchor="middle" paint-order="stroke" stroke="#efe4c8" stroke-width="5" stroke-linejoin="round">Trigal</text></g><g id="local-6"><circle cx="280" cy="990" r="13" fill="#fff8e5" stroke="#6e5932" stroke-width="2"/><text x="280" y="994" text-anchor="middle" font-size="11" font-family="sans-serif">6</text><text x="280" y="1023" text-anchor="middle" paint-order="stroke" stroke="#efe4c8" stroke-width="5" stroke-linejoin="round">Bosque Alto</text></g><g id="local-7"><circle cx="480" cy="1410" r="13" fill="#fff8e5" stroke="#6e5932" stroke-width="2"/><text x="480" y="1414" text-anchor="middle" font-size="11" font-family="sans-serif">7</text><text x="480" y="1443" text-anchor="middle" paint-order="stroke" stroke="#efe4c8" stroke-width="5" stroke-linejoin="round">Ribamar</text></g><g id="local-8"><circle cx="890" cy="1290" r="13" fill="#fff8e5" stroke="#6e5932" stroke-width="2"/><text x="890" y="1294" text-anchor="middle" font-size="11" font-family="sans-serif">8</text><text x="890" y="1323" text-anchor="middle" paint-order="stroke" stroke="#efe4c8" stroke-width="5" stroke-linejoin="round">Vila dos Arcos</text></g><g id="local-9"><circle cx="1060" cy="1380" r="13" fill="#fff8e5" stroke="#6e5932" stroke-width="2"/><text x="1060" y="1384" text-anchor="middle" font-size="11" font-family="sans-serif">9</text><text x="1060" y="1413" text-anchor="middle" paint-order="stroke" stroke="#efe4c8" stroke-width="5" stroke-linejoin="round">Salinas da Coroa</text></g><g id="local-10"><circle cx="300" cy="1130" r="13" fill="#fff8e5" stroke="#6e5932" stroke-width="2"/><text x="300" y="1134" text-anchor="middle" font-size="11" font-family="sans-serif">10</text><text x="300" y="1163" text-anchor="middle" paint-order="stroke" stroke="#efe4c8" stroke-width="5" stroke-linejoin="round">Junco Velho</text></g><g id="local-11"><circle cx="850" cy="780" r="13" fill="#fff8e5" stroke="#6e5932" stroke-width="2"/><text x="850" y="784" text-anchor="middle" font-size="11" font-family="sans-serif">11</text><text x="850" y="813" text-anchor="middle" paint-order="stroke" stroke="#efe4c8" stroke-width="5" stroke-linejoin="round">Cárdenas Alta</text></g><g id="local-12"><circle cx="560" cy="640" r="13" fill="#fff8e5" stroke="#6e5932" stroke-width="2"/><text x="560" y="644" text-anchor="middle" font-size="11" font-family="sans-serif">12</text><text x="560" y="673" text-anchor="middle" paint-order="stroke" stroke="#efe4c8" stroke-width="5" stroke-linejoin="round">Academia de Valédria</text></g><g id="local-13"><circle cx="690" cy="650" r="13" fill="#fff8e5" stroke="#6e5932" stroke-width="2"/><text x="690" y="654" text-anchor="middle" font-size="11" font-family="sans-serif">13</text><text x="690" y="683" text-anchor="middle" paint-order="stroke" stroke="#efe4c8" stroke-width="5" stroke-linejoin="round">Poço Fundo</text></g><g id="local-14"><circle cx="650" cy="920" r="13" fill="#fff8e5" stroke="#6e5932" stroke-width="2"/><text x="650" y="924" text-anchor="middle" font-size="11" font-family="sans-serif">14</text><text x="650" y="953" text-anchor="middle" paint-order="stroke" stroke="#efe4c8" stroke-width="5" stroke-linejoin="round">Feira Nova</text></g><g id="local-15"><circle cx="1010" cy="610" r="13" fill="#fff8e5" stroke="#6e5932" stroke-width="2"/><text x="1010" y="614" text-anchor="middle" font-size="11" font-family="sans-serif">15</text><text x="1010" y="643" text-anchor="middle" paint-order="stroke" stroke="#efe4c8" stroke-width="5" stroke-linejoin="round">Torre de Aldenor</text></g><g id="local-16"><circle cx="820" cy="920" r="13" fill="#fff8e5" stroke="#6e5932" stroke-width="2"/><text x="820" y="924" text-anchor="middle" font-size="11" font-family="sans-serif">16</text><text x="820" y="953" text-anchor="middle" paint-order="stroke" stroke="#efe4c8" stroke-width="5" stroke-linejoin="round">Cruzeiro do Sul</text></g><g id="local-17"><circle cx="840" cy="690" r="13" fill="#fff8e5" stroke="#6e5932" stroke-width="2"/><text x="840" y="694" text-anchor="middle" font-size="11" font-family="sans-serif">17</text><text x="840" y="723" text-anchor="middle" paint-order="stroke" stroke="#efe4c8" stroke-width="5" stroke-linejoin="round">Campo de Aço</text></g><g id="local-18"><circle cx="1010" cy="820" r="13" fill="#fff8e5" stroke="#6e5932" stroke-width="2"/><text x="1010" y="824" text-anchor="middle" font-size="11" font-family="sans-serif">18</text><text x="1010" y="853" text-anchor="middle" paint-order="stroke" stroke="#efe4c8" stroke-width="5" stroke-linejoin="round">Ponte da Rainha</text></g><g id="local-19"><circle cx="1050" cy="979.9999999999999" r="13" fill="#fff8e5" stroke="#6e5932" stroke-width="2"/><text x="1050" y="983.9999999999999" text-anchor="middle" font-size="11" font-family="sans-serif">19</text><text x="1050" y="1012.9999999999999" text-anchor="middle" paint-order="stroke" stroke="#efe4c8" stroke-width="5" stroke-linejoin="round">Urze Baixa</text></g><g id="local-20"><circle cx="1180" cy="620" r="13" fill="#fff8e5" stroke="#6e5932" stroke-width="2"/><text x="1180" y="624" text-anchor="middle" font-size="11" font-family="sans-serif">20</text><text x="1180" y="653" text-anchor="middle" paint-order="stroke" stroke="#efe4c8" stroke-width="5" stroke-linejoin="round">Santa Vigília</text></g><g id="local-21"><circle cx="880" cy="300" r="13" fill="#fff8e5" stroke="#6e5932" stroke-width="2"/><text x="880" y="304" text-anchor="middle" font-size="11" font-family="sans-serif">21</text><text x="880" y="333" text-anchor="middle" paint-order="stroke" stroke="#efe4c8" stroke-width="5" stroke-linejoin="round">Montegris</text></g><g id="local-22"><circle cx="680" cy="210" r="13" fill="#fff8e5" stroke="#6e5932" stroke-width="2"/><text x="680" y="214" text-anchor="middle" font-size="11" font-family="sans-serif">22</text><text x="680" y="243" text-anchor="middle" paint-order="stroke" stroke="#efe4c8" stroke-width="5" stroke-linejoin="round">Pedrafria</text></g><g id="local-23"><circle cx="1070" cy="170" r="13" fill="#fff8e5" stroke="#6e5932" stroke-width="2"/><text x="1070" y="174" text-anchor="middle" font-size="11" font-family="sans-serif">23</text><text x="1070" y="203" text-anchor="middle" paint-order="stroke" stroke="#efe4c8" stroke-width="5" stroke-linejoin="round">Vigília Branca</text></g><g id="local-24"><circle cx="880" cy="380" r="13" fill="#fff8e5" stroke="#6e5932" stroke-width="2"/><text x="880" y="384" text-anchor="middle" font-size="11" font-family="sans-serif">24</text><text x="880" y="413" text-anchor="middle" paint-order="stroke" stroke="#efe4c8" stroke-width="5" stroke-linejoin="round">Baixapedra</text></g><g id="local-25"><circle cx="1060" cy="360" r="13" fill="#fff8e5" stroke="#6e5932" stroke-width="2"/><text x="1060" y="364" text-anchor="middle" font-size="11" font-family="sans-serif">25</text><text x="1060" y="393" text-anchor="middle" paint-order="stroke" stroke="#efe4c8" stroke-width="5" stroke-linejoin="round">Fornalha do Vale</text></g><g id="local-26"><circle cx="680" cy="400" r="13" fill="#fff8e5" stroke="#6e5932" stroke-width="2"/><text x="680" y="404" text-anchor="middle" font-size="11" font-family="sans-serif">26</text><text x="680" y="433" text-anchor="middle" paint-order="stroke" stroke="#efe4c8" stroke-width="5" stroke-linejoin="round">Cedro Alto</text></g><g id="local-27"><circle cx="1140" cy="280" r="13" fill="#fff8e5" stroke="#6e5932" stroke-width="2"/><text x="1140" y="284" text-anchor="middle" font-size="11" font-family="sans-serif">27</text><text x="1140" y="313" text-anchor="middle" paint-order="stroke" stroke="#efe4c8" stroke-width="5" stroke-linejoin="round">Lago do Sino</text></g><g id="local-28"><circle cx="930" cy="520" r="13" fill="#fff8e5" stroke="#6e5932" stroke-width="2"/><text x="930" y="524" text-anchor="middle" font-size="11" font-family="sans-serif">28</text><text x="930" y="553" text-anchor="middle" paint-order="stroke" stroke="#efe4c8" stroke-width="5" stroke-linejoin="round">Vale Curto</text></g><g id="local-29"><circle cx="870" cy="170" r="13" fill="#fff8e5" stroke="#6e5932" stroke-width="2"/><text x="870" y="174" text-anchor="middle" font-size="11" font-family="sans-serif">29</text><text x="870" y="203" text-anchor="middle" paint-order="stroke" stroke="#efe4c8" stroke-width="5" stroke-linejoin="round">Passo das Cabras</text></g><g id="local-30"><circle cx="520" cy="280" r="13" fill="#fff8e5" stroke="#6e5932" stroke-width="2"/><text x="520" y="284" text-anchor="middle" font-size="11" font-family="sans-serif">30</text><text x="520" y="313" text-anchor="middle" paint-order="stroke" stroke="#efe4c8" stroke-width="5" stroke-linejoin="round">Águas de Ferro</text></g><g id="local-31"><circle cx="1240" cy="820" r="13" fill="#fff8e5" stroke="#6e5932" stroke-width="2"/><text x="1240" y="824" text-anchor="middle" font-size="11" font-family="sans-serif">31</text><text x="1240" y="853" text-anchor="middle" paint-order="stroke" stroke="#efe4c8" stroke-width="5" stroke-linejoin="round">Encruzilhada</text></g><g id="local-32"><circle cx="1350" cy="970.0000000000001" r="13" fill="#fff8e5" stroke="#6e5932" stroke-width="2"/><text x="1350" y="974.0000000000001" text-anchor="middle" font-size="11" font-family="sans-serif">32</text><text x="1350" y="1003.0000000000001" text-anchor="middle" paint-order="stroke" stroke="#efe4c8" stroke-width="5" stroke-linejoin="round">Ponte Rubra</text></g><g id="local-33"><circle cx="1450" cy="1090" r="13" fill="#fff8e5" stroke="#6e5932" stroke-width="2"/><text x="1450" y="1094" text-anchor="middle" font-size="11" font-family="sans-serif">33</text><text x="1450" y="1123" text-anchor="middle" paint-order="stroke" stroke="#efe4c8" stroke-width="5" stroke-linejoin="round">Limiar de Cinzas</text></g><g id="local-34"><circle cx="290" cy="570" r="13" fill="#fff8e5" stroke="#6e5932" stroke-width="2"/><text x="290" y="574" text-anchor="middle" font-size="11" font-family="sans-serif">34</text><text x="290" y="603" text-anchor="middle" paint-order="stroke" stroke="#efe4c8" stroke-width="5" stroke-linejoin="round">Silvanneth</text></g><g id="local-35"><circle cx="450" cy="810" r="13" fill="#fff8e5" stroke="#6e5932" stroke-width="2"/><text x="450" y="814" text-anchor="middle" font-size="11" font-family="sans-serif">35</text><text x="450" y="843" text-anchor="middle" paint-order="stroke" stroke="#efe4c8" stroke-width="5" stroke-linejoin="round">Eryndal</text></g><g id="local-36"><circle cx="270" cy="720" r="13" fill="#fff8e5" stroke="#6e5932" stroke-width="2"/><text x="270" y="724" text-anchor="middle" font-size="11" font-family="sans-serif">36</text><text x="270" y="753" text-anchor="middle" paint-order="stroke" stroke="#efe4c8" stroke-width="5" stroke-linejoin="round">Thal'Miryn</text></g><g id="local-37"><circle cx="260" cy="200" r="13" fill="#fff8e5" stroke="#6e5932" stroke-width="2"/><text x="260" y="204" text-anchor="middle" font-size="11" font-family="sans-serif">37</text><text x="260" y="233" text-anchor="middle" paint-order="stroke" stroke="#efe4c8" stroke-width="5" stroke-linejoin="round">Durrak-Thol</text></g><g id="local-38"><circle cx="330" cy="350" r="13" fill="#fff8e5" stroke="#6e5932" stroke-width="2"/><text x="330" y="354" text-anchor="middle" font-size="11" font-family="sans-serif">38</text><text x="330" y="383" text-anchor="middle" paint-order="stroke" stroke="#efe4c8" stroke-width="5" stroke-linejoin="round">Kholdrynn</text></g><g id="local-39"><circle cx="140" cy="420" r="13" fill="#fff8e5" stroke="#6e5932" stroke-width="2"/><text x="140" y="424" text-anchor="middle" font-size="11" font-family="sans-serif">39</text><text x="140" y="453" text-anchor="middle" paint-order="stroke" stroke="#efe4c8" stroke-width="5" stroke-linejoin="round">Gryndak</text></g><g id="local-40"><circle cx="1580" cy="660" r="13" fill="#fff8e5" stroke="#6e5932" stroke-width="2"/><text x="1580" y="664" text-anchor="middle" font-size="11" font-family="sans-serif">40</text><text x="1580" y="693" text-anchor="middle" paint-order="stroke" stroke="#efe4c8" stroke-width="5" stroke-linejoin="round">Vrak'Thon</text></g><g id="local-41"><circle cx="1530" cy="910" r="13" fill="#fff8e5" stroke="#6e5932" stroke-width="2"/><text x="1530" y="914" text-anchor="middle" font-size="11" font-family="sans-serif">41</text><text x="1530" y="943" text-anchor="middle" paint-order="stroke" stroke="#efe4c8" stroke-width="5" stroke-linejoin="round">Skral</text></g><g id="local-42"><circle cx="1600" cy="1210" r="13" fill="#fff8e5" stroke="#6e5932" stroke-width="2"/><text x="1600" y="1214" text-anchor="middle" font-size="11" font-family="sans-serif">42</text><text x="1600" y="1243" text-anchor="middle" paint-order="stroke" stroke="#efe4c8" stroke-width="5" stroke-linejoin="round">Sem'Kar</text></g><g id="local-43"><circle cx="470" cy="160" r="13" fill="#fff8e5" stroke="#6e5932" stroke-width="2"/><text x="470" y="164" text-anchor="middle" font-size="11" font-family="sans-serif">43</text><text x="470" y="193" text-anchor="middle" paint-order="stroke" stroke="#efe4c8" stroke-width="5" stroke-linejoin="round">Fauces do Norte</text></g></g><g transform="translate(1600 235)" stroke="#796543" fill="#fff5dd"><path d="M0-65 14-14 60 0 14 14 0 65-14 14-60 0-14-14Z"/><path d="M0-65V65M-60 0H60"/><text y="-78" text-anchor="middle" fill="#655236" stroke="none" font-family="Georgia" font-size="24">N</text></g><rect x="18" y="18" width="1764" height="1464" rx="20" fill="none" stroke="#9d8962" stroke-width="2"/><rect x="26" y="26" width="1748" height="1448" rx="16" fill="url(#paper)" pointer-events="none"/><text x="60" y="1460" fill="#675b42" font-family="Georgia" font-size="15">ATLAS NARRATIVO · SEM ESCALA MÉTRICA · Rotas tracejadas / túneis pontilhados</text></svg>